<?xml version="1.0" encoding="utf-8"?>
<!-- Generator: Adobe Illustrator 15.1.0, SVG Export Plug-In . SVG Version: 6.00 Build 0)  -->
<!DOCTYPE svg PUBLIC "-//W3C//DTD SVG 1.1//EN" "http://www.w3.org/Graphics/SVG/1.1/DTD/svg11.dtd">
<svg version="1.1"
	 id="svg2" xmlns:rdf="http://www.w3.org/1999/02/22-rdf-syntax-ns#" xmlns:svg="http://www.w3.org/2000/svg" xmlns:cc="http://creativecommons.org/ns#" xmlns:dc="http://purl.org/dc/elements/1.1/"
	 xmlns="http://www.w3.org/2000/svg" xmlns:xlink="http://www.w3.org/1999/xlink" x="0px" y="0px" width="160px" height="179.913px"
	 viewBox="10 36 160 179.913" enable-background="new 10 36 160 179.913" xml:space="preserve">
<path id="path22" fill="#C0C0C0" d="M10,116c0,44.186,35.82,80,80,80c44.186,0,80-35.814,80-80c0-44.18-35.814-80-80-80
	C45.82,36,10,71.82,10,116"/>
<path id="path26" fill="#404040" d="M77.031,88.5c0,6.905-4.48,12.5-10,12.5c-5.52,0-10-5.595-10-12.5c0-6.9,4.48-12.5,10-12.5
	C72.551,76,77.031,81.6,77.031,88.5"/>
<path id="path30" fill="#404040" d="M130,93.5c0,6.905-4.475,12.5-10,12.5c-5.52,0-10-5.595-10-12.5c0-6.9,4.48-12.5,10-12.5
	C125.525,81,130,86.6,130,93.5"/>
<path id="path34" fill="#404040" d="M48.354,67.665c-0.82-0.435-1.515-1.115-1.955-1.99c-1.08-2.145-0.2-4.635,1.965-5.565
	c21.33-9.15,38.495-0.215,39.215,0.17c2.165,1.155,3.04,3.74,1.955,5.77c-1.08,2.025-3.7,2.73-5.865,1.59
	c-0.615-0.32-14.16-7.16-31.39,0.235C50.995,68.42,49.544,68.3,48.354,67.665"/>
<path id="path38" fill="#404040" d="M73.713,133.861c-0.68-0.635-1.18-1.465-1.38-2.43c-0.495-2.346,0.99-4.53,3.325-4.87
	c22.96-3.39,37.259,9.646,37.865,10.2c1.801,1.67,1.975,4.385,0.41,6.074c-1.561,1.681-4.275,1.69-6.07,0.031
	c-0.52-0.461-11.859-10.541-30.41-7.806C76.068,135.267,74.699,134.781,73.713,133.861"/>
<path id="path42" fill="#404040" d="M102.153,86.415c-0.78-0.49-1.43-1.215-1.81-2.12c-0.936-2.21,0.115-4.64,2.335-5.42
	c21.905-7.68,38.425,2.4,39.12,2.835c2.074,1.3,2.77,3.935,1.555,5.89c-1.21,1.95-3.88,2.475-5.955,1.19
	c-0.6-0.365-13.641-8.105-31.335-1.9C104.744,87.35,103.304,87.13,102.153,86.415"/>
<path id="path46" fill="#808080" d="M86.382,211.659c0,0,6.325-2.056,7.146-6.761c0.865-4.854-3.12-5.834-3.12-5.834
	s5.204-1.041,5.86-6.881c0.614-5.5-4.311-6.814-4.311-6.814s4.85-2,5.08-7.695c0.189-4.795-4.975-7.14-4.975-7.14
	s25.189-6.101,27.774-6.7c2.58-0.605,6.604-3.08,5.351-8.475c-1.246-5.4-6.021-5.59-8.49-5.016c-2.471,0.58-33.72,7.836-44.5,10.346
	c-1.15,0.265-6.54,1.51-7.195,1.67c-2.7,0.635-3.925-0.555-2.025-2.561c2.545-2.68,4.165-5.645,4.735-10.564
	c0.595-5.18-1.16-11.57-2.165-14.045c-1.87-4.605-5.025-8.246-8.67-9.496c-5.69-1.95-9.73,1.605-7.71,7.805
	c3.02,9.274,1.045,16.875-4.165,21.465c-12.245,10.785-17.945,18.476-14.15,34.865c4.135,17.875,21.885,29.38,39.76,25.239
	C71.557,214.859,86.382,211.659,86.382,211.659"/>
</svg>
